<?xml version="1.0" encoding="UTF-8" standalone="no"?>
<svg
   xmlns:dc="http://purl.org/dc/elements/1.1/"
   xmlns:cc="http://creativecommons.org/ns#"
   xmlns:rdf="http://www.w3.org/1999/02/22-rdf-syntax-ns#"
   xmlns:svg="http://www.w3.org/2000/svg"
   xmlns="http://www.w3.org/2000/svg"
   xmlns:sodipodi="http://sodipodi.sourceforge.net/DTD/sodipodi-0.dtd"
   xmlns:inkscape="http://www.inkscape.org/namespaces/inkscape"
   width="700"
   height="700"
   viewBox="0 0 700 700"
   version="1.1"
   id="svg24"
   sodipodi:docname="iberia-logo.svg"
   inkscape:version="0.92.1 r15371"
   inkscape:export-filename="C:\Users\alex\sites\iberia-logo-0.png"
   inkscape:export-xdpi="561.73712"
   inkscape:export-ydpi="561.73712">
  <metadata
     id="metadata28">
    <rdf:RDF>
      <cc:Work
         rdf:about="">
        <dc:format>image/svg+xml</dc:format>
        <dc:type
           rdf:resource="http://purl.org/dc/dcmitype/StillImage" />
        <dc:title>logo_iberia</dc:title>
      </cc:Work>
    </rdf:RDF>
  </metadata>
  <sodipodi:namedview
     pagecolor="#ffffff"
     bordercolor="#666666"
     borderopacity="1"
     objecttolerance="10"
     gridtolerance="10"
     guidetolerance="10"
     inkscape:pageopacity="0"
     inkscape:pageshadow="2"
     inkscape:window-width="1600"
     inkscape:window-height="838"
     id="namedview26"
     showgrid="false"
     inkscape:zoom="0.5"
     inkscape:cx="741.85769"
     inkscape:cy="338.46929"
     inkscape:window-x="-8"
     inkscape:window-y="-8"
     inkscape:window-maximized="1"
     inkscape:current-layer="logo_iberia" />
  <!-- Generator: Sketch 49 (51002) - http://www.bohemiancoding.com/sketch -->
  <title
     id="title2">logo_iberia</title>
  <desc
     id="desc4">Created with Sketch.</desc>
  <defs
     id="defs13">
    <linearGradient
       x1="-0.012277527"
       y1="0.036324054"
       x2="0.99157828"
       y2="1.0249835"
       id="linearGradient-1">
      <stop
         stop-color="#ED7417"
         offset="0%"
         id="stop6" />
      <stop
         stop-color="#FACD08"
         offset="85%"
         id="stop8" />
      <stop
         stop-color="#FACD08"
         offset="100%"
         id="stop10" />
    </linearGradient>
    <linearGradient
       x1="0"
       y1="0"
       x2="1"
       y2="0"
       gradientUnits="userSpaceOnUse"
       gradientTransform="matrix(0,23.745394,23.745394,0,475.21436,778.93805)"
       spreadMethod="pad"
       id="linearGradient74">
      <stop
         style="stop-opacity:1;stop-color:#a61722"
         offset="0"
         id="stop68" />
      <stop
         style="stop-opacity:1;stop-color:#e11733"
         offset="0.8"
         id="stop70" />
      <stop
         style="stop-opacity:1;stop-color:#e11733"
         offset="1"
         id="stop72" />
    </linearGradient>
    <linearGradient
       x1="0"
       y1="0"
       x2="1"
       y2="0"
       gradientUnits="userSpaceOnUse"
       gradientTransform="matrix(15.123153,8.7313566,8.7313566,-15.123153,487.75699,798.18292)"
       spreadMethod="pad"
       id="linearGradient52">
      <stop
         style="stop-opacity:1;stop-color:#f57615"
         offset="0"
         id="stop46" />
      <stop
         style="stop-opacity:1;stop-color:#fccb06"
         offset="0.85"
         id="stop48" />
      <stop
         style="stop-opacity:1;stop-color:#fccb06"
         offset="1"
         id="stop50" />
    </linearGradient>
    <linearGradient
       x1="0"
       y1="0"
       x2="1"
       y2="0"
       gradientUnits="userSpaceOnUse"
       gradientTransform="matrix(22.519587,13.00169,13.00169,-22.519587,479.06665,786.83923)"
       spreadMethod="pad"
       id="linearGradient30">
      <stop
         style="stop-opacity:1;stop-color:#a61722"
         offset="0"
         id="stop24" />
      <stop
         style="stop-opacity:1;stop-color:#e11733"
         offset="0.5"
         id="stop26" />
      <stop
         style="stop-opacity:1;stop-color:#e11733"
         offset="1"
         id="stop28" />
    </linearGradient>
    <linearGradient
       gradientUnits="userSpaceOnUse"
       gradientTransform="matrix(4.7331039,0,0,-2.8595836,815.65475,-327.1638)"
       x1="99.033974"
       y1="15.507118"
       x2="136.48735"
       y2="52.393524"
       id="linearGradient-1-3">
      <stop
         stop-color="#ED7417"
         offset="0%"
         id="stop6-8" />
      <stop
         stop-color="#FACD08"
         offset="85%"
         id="stop8-3" />
      <stop
         stop-color="#FACD08"
         offset="100%"
         id="stop10-3" />
    </linearGradient>
  </defs>
  <g
     id="menu_definitivo"
     style="fill:none;fill-rule:evenodd;stroke:none;stroke-width:1"
     transform="translate(0,660)">
    <g
       id="01_nav_contenidos_reposo_hover_activo_1280"
       transform="translate(-441,-146)">
      <g
         id="00_01_menu-copy"
         transform="translate(0,124)">
        <g
           id="Group-5">
          <g
             id="menu_principal">
            <g
               id="logo_iberia"
               transform="translate(441,22)">
              <g
                 transform="matrix(4.5978198,0,0,-4.5978198,-1701.3126,3356.3636)"
                 id="g12"
                 inkscape:export-filename="C:\Users\alex\sites\iberia-logo-5.png"
                 inkscape:export-xdpi="73.442902"
                 inkscape:export-ydpi="73.442902">
                <g
                   id="g14">
                  <g
                     id="g20">
                    <g
                       id="g22">
                      <path
                         d="m 482.683,792.535 -4.364,-4.401 c 15.142,0 18.712,3.557 20.793,8.403 v 0 l 1.749,4.56 c -5.102,-0.147 -12.797,-3.152 -18.178,-8.562"
                         style="fill:url(#linearGradient30);stroke:none"
                         id="path32"
                         inkscape:connector-curvature="0" />
                    </g>
                  </g>
                </g>
              </g>
              <g
                 transform="matrix(4.5978198,0,0,-4.5978198,-1701.3126,3356.3636)"
                 id="g34"
                 inkscape:export-filename="C:\Users\alex\sites\iberia-logo-5.png"
                 inkscape:export-xdpi="73.442902"
                 inkscape:export-ydpi="73.442902">
                <g
                   id="g36">
                  <g
                     id="g42">
                    <g
                       id="g44">
                      <path
                         d="m 492.851,802.831 -4.909,-4.969 c 4.661,3.345 9.308,5.365 13.935,5.889 v 0 l 1.131,2.942 c -6.853,0 -7.787,-1.497 -10.157,-3.862"
                         style="fill:url(#linearGradient52);stroke:none"
                         id="path54"
                         inkscape:connector-curvature="0" />
                    </g>
                  </g>
                </g>
              </g>
              <g
                 transform="matrix(4.5978198,0,0,-4.5978198,-1701.3126,3356.3636)"
                 id="g56"
                 inkscape:export-filename="C:\Users\alex\sites\iberia-logo-5.png"
                 inkscape:export-xdpi="73.442902"
                 inkscape:export-ydpi="73.442902">
                <g
                   id="g58">
                  <g
                     id="g64">
                    <g
                       id="g66">
                      <path
                         d="m 463.528,804.048 c -1.067,-1.587 -2.239,-3.568 -3.526,-6.107 v 0 c -1.297,-2.555 -2.468,-5.174 -3.194,-7.163 v 0 h 4.332 c 0.264,0.828 0.583,1.667 0.926,2.457 v 0 h 7.117 c 0.344,-0.787 0.649,-1.577 0.931,-2.457 v 0 h 4.331 c -0.771,1.993 -1.892,4.594 -3.186,7.148 v 0 c -1.29,2.54 -2.446,4.53 -3.534,6.122 v 0 z m 2.095,-3.136 c 0.895,-1.602 1.696,-3.224 2.587,-5.221 v 0 h -5.17 c 0.874,1.957 1.677,3.579 2.583,5.221 m -33.14,3.136 c -0.209,-2.037 -0.318,-4.461 -0.318,-6.634 v 0 c 0,-2.157 0.106,-4.33 0.322,-6.636 v 0 h 4.105 c -0.179,1.716 -0.264,3.189 -0.321,4.925 v 0 h 4.13 c 0.301,-0.333 0.796,-0.964 1.313,-1.783 v 0 c 0.599,-0.948 1.067,-1.885 1.586,-3.142 v 0 h 4.589 c -0.603,1.147 -1.255,2.185 -2.236,3.568 v 0 c -0.563,0.79 -1.091,1.431 -1.576,1.909 v 0 c 1.723,0.607 2.787,2.06 2.787,3.827 v 0 c 0,1.011 -0.363,1.966 -0.995,2.627 v 0 c -0.895,0.924 -2.285,1.339 -4.512,1.339 v 0 z m 3.91,-2.486 h 3.61 c 1.328,0 1.976,-0.162 2.39,-0.604 v 0 c 0.245,-0.246 0.392,-0.64 0.392,-1.057 v 0 c 0,-0.714 -0.37,-1.348 -1.017,-1.744 v 0 h -5.499 c 0.002,0.983 0.043,2.098 0.124,3.405 m -20.316,2.486 c -0.196,-2.104 -0.321,-4.483 -0.321,-6.644 v 0 c 0,-2.147 0.142,-4.508 0.321,-6.63 v 0 h 12.665 c -0.068,0.884 -0.119,1.694 -0.165,2.646 v 0 h -8.62 c -0.066,0.997 -0.097,1.913 -0.099,2.804 v 0 h 7.951 v 2.505 h -7.951 c 0,0.727 0.025,1.789 0.097,2.672 v 0 h 8.612 c 0.042,0.931 0.094,1.712 0.179,2.647 v 0 z m -18.074,0 c -0.211,-1.982 -0.322,-4.481 -0.322,-6.634 v 0 c 0,-2.157 0.1,-4.269 0.322,-6.636 v 0 h 7.827 c 2.767,0 4.475,0.318 5.533,1.043 v 0 c 0.814,0.56 1.318,1.671 1.318,2.903 v 0 c 0,1.451 -0.828,2.609 -2.281,3.203 v 0 c 0.966,0.543 1.582,1.589 1.582,2.717 v 0 c 0,1.048 -0.302,1.775 -0.983,2.352 v 0 c -1.14,0.97 -3.232,1.052 -5.456,1.052 v 0 z m 3.908,-2.513 h 3.472 c 1.403,0 1.871,-0.103 2.271,-0.51 v 0 c 0.206,-0.208 0.329,-0.574 0.329,-0.981 v 0 c 0,-0.562 -0.225,-1.046 -0.638,-1.363 v 0 h -5.557 c 0.013,0.993 0.053,1.917 0.123,2.854 m -0.125,-5.258 h 4.997 c 0.723,0 1.093,-0.098 1.416,-0.375 v 0 c 0.304,-0.257 0.444,-0.579 0.444,-1.014 v 0 c 0,-0.456 -0.132,-0.811 -0.404,-1.085 v 0 c -0.391,-0.361 -0.939,-0.517 -1.895,-0.517 v 0 h -4.433 c -0.088,1.054 -0.121,2.117 -0.125,2.991 m 49.11,7.769 c -0.209,-1.898 -0.329,-4.401 -0.323,-6.749 v 0 c 0.005,-2.246 0.094,-4.407 0.323,-6.519 v 0 h 3.536 c 0.238,2.102 0.316,4.269 0.323,6.521 v 0 c 0.003,2.34 -0.129,4.865 -0.321,6.747 v 0 z m -61.282,0 c -0.21,-1.898 -0.327,-4.401 -0.324,-6.749 v 0 c 0.007,-2.246 0.093,-4.407 0.324,-6.519 v 0 h 3.535 c 0.238,2.102 0.317,4.269 0.324,6.521 v 0 c 0.005,2.34 -0.127,4.865 -0.322,6.747 v 0 z"
                         style="fill:url(#linearGradient74);stroke:none"
                         id="path76"
                         inkscape:connector-curvature="0"
                         sodipodi:nodetypes="ccccccccccccccccccccccccccccccccccccccccccccccccscccccccccccccccccccccccccccccccccsccccccccccccccscccccccccscccccccccccccccccccccccccccccccc" />
                    </g>
                  </g>
                </g>
              </g>
              <rect
                 style="fill:#c61c28;fill-opacity:1;stroke:none;stroke-width:102.43032837;stroke-miterlimit:4;stroke-dasharray:none;stroke-opacity:1;paint-order:markers fill stroke"
                 id="rect4804"
                 width="812.07227"
                 height="406.03613"
                 x="734.72455"
                 y="-663.85071"
                 inkscape:export-filename="C:\Users\alex\sites\iberia-logo-4.png"
                 inkscape:export-xdpi="47.28643"
                 inkscape:export-ydpi="47.28643" />
              <path
                 inkscape:connector-curvature="0"
                 style="fill:#ffffff;stroke-width:3.6789546"
                 d="m 1226.1857,-500.07467 c -5.8983,7.91227 -12.3773,17.7995 -19.4968,30.46414 v 0 c -7.1794,12.74781 -13.6538,25.8116 -17.6675,35.74873 v 0 h 23.9483 c 1.4654,-4.14116 3.2487,-8.33224 5.138,-12.2655 v 0 h 39.3485 c 1.9031,3.91664 3.5897,7.86238 5.1518,12.2655 v 0 h 23.9529 c -4.2625,-9.95792 -10.4604,-22.9344 -17.6213,-35.66972 v 0 c -7.1379,-12.68128 -13.534,-22.61424 -19.5475,-30.54315 v 0 z m 11.5801,15.64576 c 4.9399,7.98298 9.3729,16.07819 14.3081,26.04444 v 0 h -28.5793 c 4.8154,-9.77083 9.253,-17.8619 14.2712,-26.04444 z m -183.2545,-15.64576 c -1.1705,10.15748 -1.7695,22.25252 -1.7695,33.10019 v 0 c 0,10.76452 0.5944,21.59558 1.7833,33.11268 v 0 h 22.6994 c -0.9769,-8.56922 -1.4561,-15.91189 -1.7787,-24.58089 v 0 h 22.8423 c 1.6636,1.65897 4.3915,4.81473 7.2578,8.90183 v 0 c 3.3362,4.73158 5.9122,9.39247 8.7784,15.67906 v 0 h 25.3767 c -3.3316,-5.73362 -6.9397,-10.91007 -12.3635,-17.81201 v 0 c -3.1012,-3.93743 -6.0319,-7.13892 -8.7184,-9.53797 v 0 c 9.5203,-3.01855 15.4094,-10.26975 15.4094,-19.08428 v 0 c 0,-5.03923 -2.0045,-9.80822 -5.4882,-13.1012 v 0 c -4.9538,-4.61931 -12.6446,-6.67741 -24.9575,-6.67741 v 0 z m 21.6165,12.40269 h 19.9669 c 7.3499,0 10.9258,0.81077 13.2114,3.00609 v 0 c 1.3594,1.23071 2.1704,3.19735 2.1704,5.26793 v 0 c 0,3.57154 -2.0414,6.73147 -5.6219,8.71058 v 0 h -30.4226 c 0.014,-4.89373 0.2443,-10.46934 0.6958,-16.9846 z m -112.34517,-12.40269 c -1.08291,10.49427 -1.7833,22.36892 -1.7833,33.14177 v 0 c 0,10.72294 0.79255,22.49782 1.78793,33.07941 v 0 h 70.02904 c -0.3642,-4.41558 -0.6497,-8.44448 -0.9077,-13.20515 v 0 h -47.67068 c -0.36866,-4.96026 -0.53915,-9.52966 -0.54838,-13.98682 v 0 h 43.97496 v -12.49002 h -43.97496 c 0,-3.62975 0.13833,-8.93511 0.54374,-13.33821 v 0 h 47.61542 c 0.235,-4.64424 0.5207,-8.54426 0.9861,-13.20098 v 0 z m -99.94489,0 c -1.16582,9.89138 -1.7787,22.35645 -1.7787,33.10019 v 0 c 0,10.76452 0.54377,21.30037 1.7787,33.11268 v 0 h 43.2746 c 15.31268,0 24.74085,-1.60077 30.59311,-5.20972 v 0 c 4.51133,-2.79404 7.30384,-8.3447 7.30384,-14.49407 v 0 c 0,-7.23456 -4.58046,-13.0139 -12.61698,-15.97009 v 0 c 5.34541,-2.71089 8.74617,-7.92892 8.74617,-13.57104 v 0 c 0,-5.22635 -1.67275,-8.84778 -5.42833,-11.72498 v 0 c -6.30846,-4.84384 -17.87477,-5.24297 -30.17377,-5.24297 v 0 z m 21.60275,12.52743 h 19.2019 c 7.76002,0 10.34518,0.53219 12.56629,2.54873 v 0 c 1.1382,1.03944 1.81556,2.86471 1.81556,4.89371 v 0 c 0,2.80235 -1.24879,5.21389 -3.52977,6.80215 v 0 h -30.73138 c 0.0735,-4.95193 0.29504,-9.55876 0.6774,-14.24459 z m -0.69584,26.23984 h 27.63933 c 3.99984,0 6.03662,0.49061 7.82915,1.86685 v 0 c 1.67734,1.29306 2.4561,2.89383 2.4561,5.06419 v 0 c 0,2.27846 -0.73266,4.05384 -2.23487,5.40096 v 0 c -2.15202,1.82112 -5.18414,2.59864 -10.47881,2.59864 v 0 h -24.51506 c -0.48385,-5.26792 -0.67277,-10.57743 -0.69584,-14.93064 z m 271.59165,-38.76313 c -1.1613,9.47563 -1.8202,21.96563 -1.7926,33.66567 v 0 c 0.03,11.21357 0.5207,21.99888 1.7926,32.54306 v 0 h 19.5383 c 1.3225,-10.49012 1.7556,-21.30454 1.7879,-32.54722 v 0 c 0.037,-11.67509 -0.705,-24.27321 -1.7695,-33.66151 v 0 z m -338.89279,0 c -1.16126,9.47563 -1.8156,21.96563 -1.78793,33.66567 v 0 c 0.0295,11.21357 0.51609,21.99888 1.78793,32.54306 v 0 h 19.55215 c 1.31327,-10.49012 1.74643,-21.30454 1.7833,-32.54722 v 0 c 0.0332,-11.67509 -0.70505,-24.27321 -1.7741,-33.66151 v 0 z"
                 id="path70"
                 inkscape:export-filename="C:\Users\alex\sites\iberia-logo-4.png"
                 inkscape:export-xdpi="47.28643"
                 inkscape:export-ydpi="47.28643" />
              <path
                 inkscape:connector-curvature="0"
                 style="fill:url(#linearGradient-1-3);stroke-width:3.6789546"
                 d="m 1320.7305,-403.86347 -34.1696,36.22637 v 0.004 c 118.6105,0 146.5733,-29.28981 162.8891,-69.15942 v 0 l 13.7007,-37.53026 c -39.9613,1.20802 -100.2636,25.94857 -142.4202,70.45852"
                 id="path92"
                 inkscape:export-filename="C:\Users\alex\sites\iberia-logo-4.png"
                 inkscape:export-xdpi="47.28643"
                 inkscape:export-ydpi="47.28643" />
              <path
                 inkscape:connector-curvature="0"
                 style="fill:#ffffff;stroke-width:3.6789546"
                 d="m 1405.9356,-487.45561 -34.7587,35.20735 c 33.0009,-23.704 65.9109,-38.00479 98.6973,-41.69757 v 0 l 7.9923,-20.84466 c -48.5358,0 -55.1459,10.61211 -71.9309,27.33488"
                 id="path114"
                 inkscape:export-filename="C:\Users\alex\sites\iberia-logo-4.png"
                 inkscape:export-xdpi="47.28643"
                 inkscape:export-ydpi="47.28643" />
            </g>
          </g>
        </g>
      </g>
    </g>
  </g>
</svg>
