<svg width="192.756" height="192.756" xmlns="http://www.w3.org/2000/svg">

 <g>
  <title>Layer 1</title>
  <g id="svg_1" clip-rule="evenodd" fill-rule="evenodd">
   <path id="svg_2" d="m0,0l192.756,0l0,192.756l-192.756,0l0,-192.756z" fill="#fff"/>
   <path id="svg_3" d="m25.317,99.205l7.248,0l-2.682,-5.943c-0.145,-0.435 -0.29,-0.87 -0.435,-1.377c-0.145,-0.435 -0.362,-1.015 -0.507,-1.595c-0.146,0.507 -0.29,1.087 -0.436,1.595c-0.217,0.507 -0.362,0.942 -0.507,1.377l-2.681,5.943zm11.741,10.291l-2.971,-6.74l-10.365,0l-3.044,6.74l-4.421,0l12.611,-27.25l12.683,27.25l-4.493,0zm33.338,1.014l-11.668,-27.177l4.421,0l5.798,13.916c0.362,0.797 0.652,1.521 0.87,2.246c0.217,0.652 0.435,1.305 0.58,1.957c0.145,-0.652 0.362,-1.305 0.58,-2.029s0.507,-1.449 0.797,-2.174l5.87,-13.916l4.421,0l-11.669,27.177zm54.719,-14.059c0,-1.305 -0.219,-2.61 -0.727,-3.769c-0.506,-1.232 -1.158,-2.247 -2.102,-3.189c-0.869,-0.942 -1.883,-1.595 -3.043,-2.102c-1.16,-0.507 -2.393,-0.725 -3.625,-0.725c-1.303,0 -2.535,0.218 -3.695,0.725c-1.16,0.435 -2.174,1.16 -3.117,2.102c-0.869,0.942 -1.594,1.957 -2.102,3.189c-0.434,1.159 -0.652,2.464 -0.652,3.769c0,1.305 0.219,2.535 0.652,3.768c0.508,1.16 1.232,2.248 2.102,3.117c0.943,0.941 1.957,1.666 3.117,2.174c1.16,0.436 2.393,0.725 3.695,0.725c1.232,0 2.465,-0.289 3.625,-0.725c1.088,-0.508 2.174,-1.232 3.043,-2.174c0.943,-0.869 1.596,-1.957 2.102,-3.117c0.508,-1.233 0.727,-2.463 0.727,-3.768zm4.42,0c0,1.883 -0.363,3.623 -1.014,5.291a15.124,15.124 0 0 1 -3.045,4.42c-1.377,1.305 -2.898,2.246 -4.566,2.971a14.613,14.613 0 0 1 -5.291,1.016c-1.955,0 -3.695,-0.363 -5.436,-1.016c-1.666,-0.725 -3.188,-1.666 -4.492,-2.971c-1.377,-1.305 -2.393,-2.754 -3.045,-4.42a13.048,13.048 0 0 1 -1.086,-5.291c0,-1.885 0.361,-3.625 1.086,-5.292c0.652,-1.667 1.668,-3.116 3.045,-4.42c1.305,-1.305 2.826,-2.319 4.492,-2.972c1.74,-0.725 3.48,-1.014 5.436,-1.014c1.812,0 3.625,0.29 5.291,1.014c1.74,0.652 3.189,1.667 4.566,2.972c1.305,1.304 2.318,2.754 3.045,4.42a14.353,14.353 0 0 1 1.014,5.292zm23.555,13.045l0,-27.25l16.668,16.016c0.436,0.436 0.871,0.943 1.377,1.451c0.436,0.506 0.943,1.086 1.451,1.738l0,-18.118l3.912,0l0,27.177l-16.959,-16.306c-0.434,-0.435 -0.869,-0.869 -1.305,-1.377c-0.434,-0.507 -0.797,-1.014 -1.23,-1.521l0,18.191l-3.914,0l0,-0.001z"/>
  </g>
 </g>
</svg>